<svg width="26" height="25" viewBox="0 0 26 25" fill="none" xmlns="http://www.w3.org/2000/svg">
<path d="M10.4602 3.125C9.14609 3.1246 7.85307 3.45571 6.70086 4.08769C5.54864 4.71966 4.57446 5.63207 3.86848 6.74048C3.1625 7.84889 2.74752 9.11748 2.66196 10.4288C2.5764 11.7402 2.82301 13.052 3.37899 14.2427L2.62482 17.2031C2.56939 17.4206 2.5711 17.6487 2.62979 17.8653C2.68848 18.0819 2.80215 18.2796 2.95978 18.4394C3.11741 18.5991 3.31365 18.7154 3.52946 18.7769C3.74527 18.8385 3.97332 18.8432 4.19149 18.7906C4.97274 18.6031 6.17378 18.3146 7.24357 18.0594C8.30578 18.5384 9.46167 18.7737 10.6266 18.7481C11.7915 18.7225 12.936 18.4367 13.9761 17.9116C15.0163 17.3864 15.9258 16.6352 16.6381 15.7131C17.3503 14.7909 17.8473 13.7211 18.0926 12.582C18.3378 11.4429 18.3252 10.2633 18.0556 9.12974C17.786 7.99615 17.2662 6.93723 16.5343 6.03054C15.8025 5.12384 14.8771 4.39233 13.8259 3.88959C12.7747 3.38685 11.6244 3.12561 10.4592 3.125H10.4602ZM4.21024 10.9375C4.21065 9.57844 4.65404 8.25654 5.47324 7.17212C6.29243 6.08769 7.44278 5.29984 8.74997 4.92795C10.0572 4.55605 11.4499 4.62037 12.7173 5.11117C13.9846 5.60197 15.0575 6.49249 15.7732 7.6478C16.489 8.80312 16.8087 10.1603 16.6838 11.5136C16.559 12.8669 15.9964 14.1426 15.0813 15.1475C14.1663 16.1523 12.9486 16.8315 11.6129 17.0822C10.2771 17.3328 8.89607 17.1412 7.67899 16.5365L7.42482 16.4104L7.14982 16.476C6.18836 16.7052 5.0769 16.9708 4.24565 17.1708L4.9644 14.35L5.03732 14.0625L4.9019 13.799C4.44569 12.9142 4.20849 11.9329 4.21024 10.9375ZM15.6686 21.875C13.6165 21.875 11.7498 21.0844 10.3561 19.7917H10.4602C11.2082 19.7917 11.9342 19.699 12.6269 19.524C13.5279 20.026 14.5644 20.3125 15.6686 20.3125C16.6686 20.3125 17.6123 20.0781 18.4498 19.6615L18.7029 19.5354L18.9779 19.601C19.9384 19.8302 21.0259 20.0646 21.8321 20.2365C21.6498 19.4542 21.4009 18.4073 21.1634 17.475L21.0904 17.1875L21.2259 16.924C21.6824 16.0393 21.92 15.058 21.9186 14.0625C21.9191 13.0176 21.6574 11.9892 21.1575 11.0716C20.6576 10.154 19.9354 9.37655 19.0571 8.81042C18.8735 8.06637 18.5933 7.34953 18.2238 6.67812C19.2579 7.0362 20.2052 7.60745 21.0046 8.35489C21.8039 9.10233 22.4373 10.0093 22.8639 11.0171C23.2904 12.0248 23.5006 13.111 23.4808 14.2051C23.461 15.2993 23.2116 16.3771 22.7488 17.3687C23.0123 18.4187 23.279 19.5562 23.4477 20.2885C23.4972 20.5007 23.4924 20.7219 23.4338 20.9317C23.3751 21.1415 23.2645 21.3331 23.1122 21.4889C22.9599 21.6446 22.7707 21.7595 22.5623 21.8228C22.3539 21.8861 22.1328 21.8958 21.9196 21.851C20.9057 21.6402 19.8942 21.418 18.8852 21.1844C17.8744 21.641 16.7777 21.8765 15.6686 21.875Z" />
</svg>
