<svg width="17" height="30" viewBox="0 0 17 30" fill="none" xmlns="http://www.w3.org/2000/svg">
<path d="M8.5 2.5C3.80071 2.5 0 6.4125 0 11.25C0 17.8125 8.5 27.5 8.5 27.5C8.5 27.5 17 17.8125 17 11.25C17 6.4125 13.1993 2.5 8.5 2.5ZM2.42857 11.25C2.42857 7.8 5.14857 5 8.5 5C11.8514 5 14.5714 7.8 14.5714 11.25C14.5714 14.85 11.0743 20.2375 8.5 23.6C5.97429 20.2625 2.42857 14.8125 2.42857 11.25Z" fill="white"/>
<path d="M8.50007 14.375C10.1766 14.375 11.5358 12.9759 11.5358 11.25C11.5358 9.52411 10.1766 8.125 8.50007 8.125C6.82349 8.125 5.46436 9.52411 5.46436 11.25C5.46436 12.9759 6.82349 14.375 8.50007 14.375Z" fill="white"/>
</svg>
