<svg width="109" height="60" viewBox="0 0 109 60" fill="none" xmlns="http://www.w3.org/2000/svg">
<path fill-rule="evenodd" clip-rule="evenodd" d="M58.6894 0C65.8163 0 70.8 5.71974 70.8 13.0191C70.8 15.7017 69.0886 17.3397 67.2403 19.1086L67.074 19.2679C71.2961 18.0069 79.5623 16 86 16C94.8 16 108 19.6 108.4 30.8C108.8 42 95.6 48.4 84.4 48C73.2 47.6 60.8 42.8 54.8 38.8C51.9162 36.8775 49.0804 35.1474 46.9868 33.8701L46.8917 33.8121C44.6531 35.3529 40.4213 38.284 39.2 39.2C38.9156 39.4133 38.5797 39.6899 38.1768 40.0218C36.7664 41.1832 34.5333 43.0223 30.8 45.2C32.6284 42.7622 34.5033 40.9743 36.1415 39.412L36.1422 39.4113C36.6541 38.9232 37.1429 38.4571 37.6 38C39.52 36.08 42.6667 33.2 44 32L44.2482 31.8601L26.4 20.8C26.3522 20.7439 26.3043 20.6882 26.2565 20.6328C22.2143 18.9248 16.1404 16.9523 11.2 17.2C10.3433 17.2429 9.56279 17.3322 8.85286 17.4594C10.6468 18.882 13.4429 21.3 14.8 23.2C16.4 25.44 18.9333 30.2667 20 32.4C20 32.1333 20.16 31.12 20.8 29.2C21.6 26.8 24.4 23.6 27.6 25.2C30.8 26.8 30.8 29.2 30.8 32C30.8 34.8 28.8 38.4 26.8 40.8C25.3279 42.5665 22.3885 45.823 20.7856 47.5784L20.8 47.6C21.4667 48.9333 22.8 52.32 22.8 55.2C22.8 58.8 20 60 18.8 60C17.6 60 15.6 59.2 15.6 55.6C15.6 52.72 17.7333 49.3333 18.8 48L19.0042 47.7278C18.4345 47.0985 17.3953 45.9586 15.6 44C14.8648 43.198 13.9398 42.2397 12.909 41.1716C7.77 35.8475 0 27.7975 0 22.8C0 16.8 7.2 15.6 12 15.6C15.0024 15.6 20.0752 16.9857 24.121 18.2275C22.6884 16.5492 21.6 14.8684 21.6 12.4C21.6 5.09791 26.978 0.137263 34.1064 0.137263C39.8613 0.137263 44.7415 2.67114 46.4105 8C48.0781 2.67045 52.9345 0 58.6894 0ZM20.2868 46.0621C26.8475 38.3204 28.4845 35.5545 28.8 32.4C29.2 28.4 27.6 26.4 25.6 26.4C24.0657 26.4 22 29.2 21.6 36.8H20.4C19.2 34.1333 17.6 29.2 14.4 24.8C11.2 20.4 9.08789 19.0879 7.20463 17.8571C4.4 18.2275 3.40655 19.0986 2.4 22.8C1.39345 26.5014 9.2 34.8 15.6 41.2C18.415 44.015 19.7468 45.4274 20.2868 46.0621ZM65.2 23.2C59.76 25.12 52 29.8667 48.8 32C48.8227 32.0227 48.8531 32.056 48.8933 32.1C49.3246 32.5724 50.8768 34.2724 56 37.2C63.1513 41.2864 73.6 46.4518 84.8 46.8C96 47.1482 106.4 40 106.4 30.8C106.4 21.6 94 18.8 86 18.8C78 18.8 72 20.8 65.2 23.2ZM36.0992 13.3472L36.8576 13.4624V19.4336L36.08 19.5296V20H38.72V19.5296L37.8848 19.4336V16.64H41.264V19.4336L40.4768 19.5296V20H43.0592V19.5296L42.3008 19.4336V13.4624L43.0592 13.3472V12.8672H40.4864V13.3472L41.264 13.4624V16.0448H37.8848V13.4624L38.7104 13.3472V12.8672H36.0992V13.3472ZM45.2396 19.6544C45.694 19.9552 46.2476 20.1056 46.9004 20.1056C47.5148 20.1056 48.0684 19.952 48.5612 19.6448C49.0604 19.3312 49.4508 18.8928 49.7324 18.3296C50.0204 17.76 50.1644 17.1008 50.1644 16.352C50.1644 15.2384 49.8988 14.368 49.3676 13.7408C48.8428 13.1072 48.0812 12.7904 47.0828 12.7904C46.4748 12.7904 45.9276 12.944 45.4412 13.2512C44.9548 13.552 44.5708 13.9808 44.2892 14.5376C44.014 15.0944 43.8764 15.7408 43.8764 16.4768C43.8764 17.2 43.9916 17.8368 44.222 18.3872C44.4524 18.9312 44.7916 19.3536 45.2396 19.6544ZM45.5564 14.1056C45.9148 13.5616 46.4044 13.2896 47.0252 13.2896C47.6588 13.2896 48.1484 13.5616 48.494 14.1056C48.8396 14.6432 49.0124 15.3952 49.0124 16.3616C49.0124 17.4048 48.83 18.2048 48.4652 18.7616C48.1068 19.3184 47.6204 19.5968 47.006 19.5968C46.3788 19.5968 45.8892 19.3184 45.5372 18.7616C45.1916 18.1984 45.0188 17.4368 45.0188 16.4768C45.0188 15.4336 45.198 14.6432 45.5564 14.1056ZM51.6109 13.4336L53.2621 13.376V19.4336L52.0141 19.5296V20H55.6813V19.5296L54.3181 19.4336V13.376L55.9789 13.4336L56.2957 15.44H56.9005L56.7853 12.8672H50.8045L50.6413 15.44H51.2749L51.6109 13.4336Z" fill="#C90084"/>
</svg>
