<svg width="55" height="30" viewBox="0 0 55 30" fill="none" xmlns="http://www.w3.org/2000/svg">
<path fill-rule="evenodd" clip-rule="evenodd" d="M29.3447 0C32.9082 0 35.4 2.85987 35.4 6.50953C35.4 7.85086 34.5443 8.66985 33.6202 9.55432L33.537 9.63396C35.648 9.00346 39.7811 8 43 8C47.4 8 54 9.8 54.2 15.4C54.4 21 47.8 24.2 42.2 24C36.6 23.8 30.4 21.4 27.4 19.4C25.9581 18.4387 24.5402 17.5737 23.4934 16.935L23.4459 16.906C22.3266 17.6765 20.2107 19.142 19.6 19.6C19.4578 19.7067 19.2898 19.845 19.0884 20.0109C18.3832 20.5916 17.2666 21.5111 15.4 22.6C16.3142 21.3811 17.2516 20.4871 18.0708 19.706L18.0711 19.7057C18.3271 19.4616 18.5715 19.2285 18.8 19C19.76 18.04 21.3333 16.6 22 16L22.1241 15.93L13.2 10.4C13.1761 10.372 13.1522 10.3441 13.1283 10.3164C11.1072 9.46239 8.0702 8.47617 5.6 8.6C5.17165 8.62147 4.78139 8.6661 4.42643 8.72972C5.32341 9.44101 6.72143 10.65 7.4 11.6C8.2 12.72 9.46667 15.1333 10 16.2C10 16.0667 10.08 15.56 10.4 14.6C10.8 13.4 12.2 11.8 13.8 12.6C15.4 13.4 15.4 14.6 15.4 16C15.4 17.4 14.4 19.2 13.4 20.4C12.6639 21.2833 11.1942 22.9115 10.3928 23.7892L10.4 23.8C10.7333 24.4667 11.4 26.16 11.4 27.6C11.4 29.4 10 30 9.4 30C8.8 30 7.8 29.6 7.8 27.8C7.8 26.36 8.86667 24.6667 9.4 24L9.50209 23.8639C9.21727 23.5493 8.69767 22.9793 7.8 22C7.43242 21.599 6.96992 21.1198 6.45448 20.5858C3.885 17.9238 0 13.8988 0 11.4C0 8.4 3.6 7.8 6 7.8C7.5012 7.8 10.0376 8.49284 12.0605 9.11374C11.3442 8.27462 10.8 7.43419 10.8 6.2C10.8 2.54895 13.489 0.0686313 17.0532 0.0686313C19.9307 0.0686313 22.3708 1.33557 23.2053 4C24.039 1.33522 26.4672 0 29.3447 0ZM10.1434 23.0311C13.4237 19.1602 14.2423 17.7773 14.4 16.2C14.6 14.2 13.8 13.2 12.8 13.2C12.0329 13.2 11 14.6 10.8 18.4H10.2C9.6 17.0667 8.8 14.6 7.2 12.4C5.6 10.2 4.54395 9.54396 3.60232 8.92857C2.2 9.11374 1.70328 9.54928 1.2 11.4C0.696723 13.2507 4.6 17.4 7.8 20.6C9.20752 22.0075 9.87341 22.7137 10.1434 23.0311ZM32.6 11.6C29.88 12.56 26 14.9333 24.4 16C24.4114 16.0114 24.4266 16.028 24.4466 16.05C24.6623 16.2862 25.4384 17.1362 28 18.6C31.5756 20.6432 36.8 23.2259 42.4 23.4C48 23.5741 53.2 20 53.2 15.4C53.2 10.8 47 9.4 43 9.4C39 9.4 36 10.4 32.6 11.6ZM18.0496 6.6736L18.4288 6.7312V9.7168L18.04 9.7648V10H19.36V9.7648L18.9424 9.7168V8.32H20.632V9.7168L20.2384 9.7648V10H21.5296V9.7648L21.1504 9.7168V6.7312L21.5296 6.6736V6.4336H20.2432V6.6736L20.632 6.7312V8.0224H18.9424V6.7312L19.3552 6.6736V6.4336H18.0496V6.6736ZM22.6198 9.8272C22.847 9.9776 23.1238 10.0528 23.4502 10.0528C23.7574 10.0528 24.0342 9.976 24.2806 9.8224C24.5302 9.6656 24.7254 9.4464 24.8662 9.1648C25.0102 8.88 25.0822 8.5504 25.0822 8.176C25.0822 7.6192 24.9494 7.184 24.6838 6.8704C24.4214 6.5536 24.0406 6.3952 23.5414 6.3952C23.2374 6.3952 22.9638 6.472 22.7206 6.6256C22.4774 6.776 22.2854 6.9904 22.1446 7.2688C22.007 7.5472 21.9382 7.8704 21.9382 8.2384C21.9382 8.6 21.9958 8.9184 22.111 9.1936C22.2262 9.4656 22.3958 9.6768 22.6198 9.8272ZM22.7782 7.0528C22.9574 6.7808 23.2022 6.6448 23.5126 6.6448C23.8294 6.6448 24.0742 6.7808 24.247 7.0528C24.4198 7.3216 24.5062 7.6976 24.5062 8.1808C24.5062 8.7024 24.415 9.1024 24.2326 9.3808C24.0534 9.6592 23.8102 9.7984 23.503 9.7984C23.1894 9.7984 22.9446 9.6592 22.7686 9.3808C22.5958 9.0992 22.5094 8.7184 22.5094 8.2384C22.5094 7.7168 22.599 7.3216 22.7782 7.0528ZM25.8055 6.7168L26.6311 6.688V9.7168L26.0071 9.7648V10H27.8407V9.7648L27.1591 9.7168V6.688L27.9895 6.7168L28.1479 7.72H28.4503L28.3927 6.4336H25.4023L25.3207 7.72H25.6375L25.8055 6.7168Z" fill="url(#paint0_linear_41_18)"/>
<defs>
<linearGradient id="paint0_linear_41_18" x1="0" y1="30" x2="25.4208" y2="-15.9306" gradientUnits="userSpaceOnUse">
<stop stop-color="#B5002C"/>
<stop offset="1" stop-color="#F3003B"/>
</linearGradient>
</defs>
</svg>
