<svg width="26" height="25" viewBox="0 0 26 25" fill="none" xmlns="http://www.w3.org/2000/svg">
<path fill-rule="evenodd" clip-rule="evenodd" d="M4.07129 9.42857C4.07129 8.82236 4.31587 8.24098 4.75122 7.81232C5.18657 7.38367 5.77704 7.14285 6.39272 7.14285H15.0981C15.6611 7.14279 16.205 7.34422 16.6285 7.70963C17.0519 8.07504 17.326 8.57952 17.3998 9.12914L21.0096 7.54971C21.1863 7.47219 21.3798 7.43938 21.5727 7.45426C21.7655 7.46915 21.9516 7.53125 22.1138 7.63492C22.2761 7.7386 22.4095 7.88056 22.5018 8.04791C22.5942 8.21525 22.6426 8.40268 22.6427 8.59314V17.1211C22.6425 17.3115 22.5941 17.4987 22.5018 17.6659C22.4095 17.8331 22.2762 17.975 22.1141 18.0786C21.952 18.1823 21.7662 18.2444 21.5735 18.2594C21.3808 18.2744 21.1874 18.2418 21.0108 18.1646L17.3998 16.5851C17.326 17.1348 17.0519 17.6392 16.6285 18.0047C16.205 18.3701 15.6611 18.5715 15.0981 18.5714H6.39272C5.77704 18.5714 5.18657 18.3306 4.75122 17.902C4.31587 17.4733 4.07129 16.8919 4.07129 16.2857V9.42857ZM17.4195 15.3429L21.482 17.1211V8.59314L17.4195 10.3714V15.3429ZM6.39272 8.28571C6.08488 8.28571 5.78964 8.40612 5.57197 8.62045C5.35429 8.83477 5.232 9.12546 5.232 9.42857V16.2857C5.232 16.5888 5.35429 16.8795 5.57197 17.0938C5.78964 17.3082 6.08488 17.4286 6.39272 17.4286H15.0981C15.4059 17.4286 15.7011 17.3082 15.9188 17.0938C16.1365 16.8795 16.2588 16.5888 16.2588 16.2857V9.42857C16.2588 9.12546 16.1365 8.83477 15.9188 8.62045C15.7011 8.40612 15.4059 8.28571 15.0981 8.28571H6.39272Z" stroke-width="0.5"/>
</svg>
