<svg xmlns="http://www.w3.org/2000/svg"><defs><linearGradient id="a" y1="30" x2="25.421" y2="-15.931" gradientUnits="userSpaceOnUse"><stop stop-color="#B5002C"/><stop offset="1" stop-color="#F3003B"/></linearGradient></defs><symbol id="chat" viewBox="0 0 26 25"><path d="M10.46 3.125A7.812 7.812 0 0 0 3.38 14.243l-.754 2.96a1.302 1.302 0 0 0 1.566 1.588l3.053-.732a7.812 7.812 0 1 0 3.215-14.934h.001zm-6.25 7.813a6.25 6.25 0 1 1 3.469 5.598l-.254-.126-.275.066c-.962.23-2.073.495-2.904.695l.718-2.821.073-.287-.135-.264a6.22 6.22 0 0 1-.692-2.861zM15.67 21.874a7.786 7.786 0 0 1-5.313-2.083h.104c.748 0 1.474-.093 2.167-.268a6.229 6.229 0 0 0 3.042.788c1 0 1.943-.234 2.78-.65l.254-.127.275.066c.96.23 2.048.464 2.854.636-.182-.783-.431-1.83-.669-2.762l-.073-.288.136-.263a6.221 6.221 0 0 0 .693-2.861 6.246 6.246 0 0 0-2.862-5.253 8.79 8.79 0 0 0-.833-2.132 7.816 7.816 0 0 1 4.525 10.69c.263 1.05.53 2.188.699 2.92a1.296 1.296 0 0 1-1.528 1.563c-1.014-.21-2.026-.433-3.035-.667a7.788 7.788 0 0 1-3.216.691z"/></symbol><symbol id="loading" viewBox="0 0 109 60"><path fill-rule="evenodd" clip-rule="evenodd" d="M58.69 0C65.815 0 70.8 5.72 70.8 13.02c0 2.682-1.711 4.32-3.56 6.089l-.166.159C71.296 18.007 79.562 16 86 16c8.8 0 22 3.6 22.4 14.8.4 11.2-12.8 17.6-24 17.2-11.2-.4-23.6-5.2-29.6-9.2-2.884-1.922-5.72-3.653-7.813-4.93l-.095-.058c-2.239 1.54-6.47 4.472-7.692 5.388-.284.213-.62.49-1.023.822-1.41 1.161-3.644 3-7.377 5.178 1.828-2.438 3.703-4.226 5.341-5.788h.001c.512-.489 1-.955 1.458-1.412 1.92-1.92 5.067-4.8 6.4-6l.248-.14L26.4 20.8a35.497 35.497 0 0 0-.143-.167C22.213 18.925 16.14 16.953 11.2 17.2c-.857.043-1.637.132-2.347.26 1.794 1.422 4.59 3.84 5.947 5.74 1.6 2.24 4.133 7.067 5.2 9.2 0-.267.16-1.28.8-3.2.8-2.4 3.6-5.6 6.8-4 3.2 1.6 3.2 4 3.2 6.8s-2 6.4-4 8.8c-1.472 1.767-4.412 5.023-6.014 6.778l.014.022c.667 1.333 2 4.72 2 7.6 0 3.6-2.8 4.8-4 4.8-1.2 0-3.2-.8-3.2-4.4 0-2.88 2.133-6.267 3.2-7.6l.204-.272c-.57-.63-1.609-1.77-3.404-3.728-.735-.802-1.66-1.76-2.691-2.828C7.77 35.847 0 27.798 0 22.8c0-6 7.2-7.2 12-7.2 3.002 0 8.075 1.386 12.121 2.627C22.688 16.55 21.6 14.868 21.6 12.4 21.6 5.098 26.978.137 34.106.137 39.861.137 44.742 2.671 46.41 8c1.668-5.33 6.525-8 12.28-8zM20.286 46.062c6.56-7.742 8.198-10.508 8.513-13.662.4-4-1.2-6-3.2-6-1.534 0-3.6 2.8-4 10.4h-1.2c-1.2-2.667-2.8-7.6-6-12s-5.312-5.712-7.195-6.943C4.4 18.227 3.407 19.1 2.4 22.8c-1.007 3.701 6.8 12 13.2 18.4 2.815 2.815 4.147 4.227 4.687 4.862zM65.2 23.2C59.76 25.12 52 29.867 48.8 32c.023.023.053.056.093.1.432.472 1.984 2.172 7.107 5.1 7.151 4.086 17.6 9.252 28.8 9.6 11.2.348 21.6-6.8 21.6-16S94 18.8 86 18.8c-8 0-14 2-20.8 4.4zm-29.1-9.853l.758.115v5.972l-.778.096V20h2.64v-.47l-.835-.096V16.64h3.379v2.794l-.787.096V20h2.582v-.47l-.758-.096v-5.972l.758-.115v-.48h-2.573v.48l.778.115v2.583h-3.38v-2.583l.826-.115v-.48H36.1v.48zm9.14 6.307c.454.301 1.008.452 1.66.452.615 0 1.168-.154 1.661-.461.5-.314.89-.752 1.171-1.315.288-.57.432-1.23.432-1.978 0-1.114-.265-1.984-.796-2.611-.525-.634-1.287-.95-2.285-.95a3.01 3.01 0 0 0-1.642.46c-.486.301-.87.73-1.152 1.287-.275.556-.413 1.203-.413 1.939 0 .723.116 1.36.346 1.91.23.544.57.967 1.018 1.267zm.316-5.548c.359-.544.848-.816 1.47-.816.633 0 1.122.272 1.468.816.346.537.518 1.29.518 2.256 0 1.043-.182 1.843-.547 2.4-.358.556-.845.835-1.459.835-.627 0-1.117-.279-1.469-.835-.345-.564-.518-1.325-.518-2.285 0-1.043.179-1.834.537-2.371zm6.055-.672l1.651-.058v6.058l-1.248.096V20h3.667v-.47l-1.363-.096v-6.058l1.66.058.318 2.006h.605l-.116-2.573h-5.98l-.164 2.573h.634l.336-2.006z" fill="#C90084"/></symbol><symbol id="logo_main" viewBox="0 0 142 102"><path fill-rule="evenodd" clip-rule="evenodd" d="M78.862 0C87.77 0 94 7.15 94 16.274c0 3.353-2.14 5.4-4.45 7.612l-.207.199C94.62 22.509 104.953 20 113 20c11 0 27.5 4.5 28 18.5s-16 22-30 21.5-29.5-6.5-37-11.5c-3.605-2.403-7.15-4.566-9.766-6.162l-.12-.073c-2.798 1.926-8.087 5.59-9.614 6.735a38.97 38.97 0 0 0-1.279 1.027C51.458 51.48 48.667 53.777 44 56.5c2.285-3.047 4.63-5.282 6.677-7.235.64-.611 1.252-1.194 1.823-1.765 2.4-2.4 6.333-6 8-7.5l.31-.175L38.5 26l-.18-.209c-5.052-2.135-12.645-4.6-18.82-4.291-1.07.054-2.047.165-2.934.324C18.808 23.602 22.304 26.625 24 29c2 2.8 5.167 8.833 6.5 11.5 0-.333.2-1.6 1-4 1-3 4.5-7 8.5-5s4 5 4 8.5-2.5 8-5 11c-1.84 2.208-5.514 6.279-7.518 8.473l.018.027c.833 1.667 2.5 5.9 2.5 9.5 0 4.5-3.5 6-5 6s-4-1-4-5.5c0-3.6 2.667-7.833 4-9.5l.255-.34c-.712-.787-2.01-2.212-4.255-4.66-.919-1.002-2.075-2.2-3.364-3.535C15.213 44.809 5.5 34.747 5.5 28.5c0-7.5 9-9 15-9 3.753 0 10.094 1.732 15.151 3.284-1.79-2.098-3.151-4.198-3.151-7.284C32.5 6.372 39.223.172 48.133.172c7.194 0 13.294 3.167 15.38 9.828 2.085-6.662 8.155-10 15.349-10zM30.859 57.578C39.058 47.9 41.105 44.443 41.5 40.5c.5-5-1.5-7.5-4-7.5-1.918 0-4.5 3.5-5 13H31c-1.5-3.333-3.5-9.5-7.5-15s-6.64-7.14-8.994-8.679C11 22.784 9.758 23.873 8.5 28.5c-1.258 4.627 8.5 15 16.5 23 3.519 3.519 5.183 5.284 5.858 6.078zM87 29c-6.8 2.4-16.5 8.333-20.5 11 .028.028.066.07.117.125.539.59 2.479 2.715 8.883 6.375 8.94 5.108 22 11.565 36 12 14 .435 27-8.5 27-20s-15.5-15-25.5-15S95.5 26 87 29zM50.624 16.684l.948.144v7.464l-.972.12V25h3.3v-.588l-1.044-.12V20.8h4.224v3.492l-.984.12V25h3.228v-.588l-.948-.12v-7.464l.948-.144v-.6h-3.216v.6l.972.144v3.228h-4.224v-3.228l1.032-.144v-.6h-3.264v.6zm11.425 7.884c.569.376 1.26.564 2.077.564.767 0 1.46-.192 2.075-.576.625-.392 1.113-.94 1.465-1.644.36-.712.54-1.536.54-2.472 0-1.392-.332-2.48-.996-3.264-.656-.792-1.608-1.188-2.856-1.188-.76 0-1.444.192-2.053.576-.608.376-1.087.912-1.44 1.608-.343.696-.515 1.504-.515 2.424 0 .904.144 1.7.432 2.388.288.68.712 1.208 1.272 1.584zm.397-6.936c.448-.68 1.06-1.02 1.835-1.02.792 0 1.404.34 1.837 1.02.431.672.648 1.612.648 2.82 0 1.304-.229 2.304-.684 3-.448.696-1.056 1.044-1.825 1.044-.784 0-1.396-.348-1.836-1.044-.431-.704-.648-1.656-.648-2.856 0-1.304.224-2.292.672-2.964zm7.568-.84l2.064-.072v7.572l-1.56.12V25h4.584v-.588l-1.704-.12V16.72l2.076.072.396 2.508h.756l-.144-3.216h-7.476l-.204 3.216h.792l.42-2.508z" fill="#C90084"/><path d="M14.041 89.027a10.204 10.204 0 0 1-2.36 2.036c-1.035.668-1.975 1.003-2.82 1.003-.651 0-.977-.487-.977-1.46 0-.83.259-2.197.777-4.102A15.479 15.479 0 0 1 6.1 90.151c-1.305 1.337-2.532 2.006-3.683 2.006-.806 0-1.43-.375-1.87-1.125C.182 90.404 0 89.634 0 88.722c0-2.572.988-5.014 2.964-7.323 1.975-2.31 4.172-3.475 6.588-3.495 1.42 0 2.61.111 3.568.334-.096.506-.566 2.836-1.41 6.99-.191.81-.45 2.036-.777 3.677 0 .628.164.942.49.942.287 0 1.026-.506 2.215-1.52l.403.7zm-4.373-8.874c0-.264-.125-.477-.374-.639a1.18 1.18 0 0 0-.749-.273c-1.515 0-2.858.962-4.028 2.887-1.055 1.722-1.582 3.434-1.582 5.136 0 1.641.431 2.462 1.295 2.462 1.38 0 2.675-1.277 3.884-3.83 1.036-2.208 1.554-4.123 1.554-5.743z" fill="#C90084"/><path d="M23.703 79.514c0 .325-.144.659-.432 1.003-.268.345-.566.517-.892.517-.326 0-.767-.284-1.323-.851-.537-.588-1.027-.881-1.468-.881a2.04 2.04 0 0 0-1.237.425c-.384.284-.575.658-.575 1.124 0 .629.46 1.297 1.38 2.006l2.59 1.945c.92.871 1.381 1.803 1.381 2.796 0 1.439-.594 2.584-1.784 3.434-1.035.75-2.263 1.125-3.683 1.125a6.218 6.218 0 0 1-2.445-.486c-.998-.426-1.496-1.024-1.496-1.793 0-1.074.374-1.611 1.122-1.611.403 0 .72.203.95.608.364.628.604.992.719 1.094.422.405 1.074.608 1.956.608 1.496 0 2.244-.568 2.244-1.702 0-.69-.46-1.398-1.38-2.128a204.815 204.815 0 0 1-2.59-1.853c-.92-.79-1.381-1.642-1.381-2.553 0-1.398.575-2.523 1.726-3.374 1.017-.77 2.215-1.155 3.597-1.155 2.014 0 3.02.568 3.02 1.702zM31.734 89.118c-1.822 2.026-3.548 3.039-5.179 3.039-.326 0-.585-.172-.777-.517a1.805 1.805 0 0 1-.201-.972c.038-.973.326-2.553.863-4.741.595-2.452.94-4.083 1.036-4.893.077-.588-.067-.882-.432-.882-.23 0-.575.163-1.035.487-.307.263-.624.527-.95.79l-.403-.73a19.254 19.254 0 0 1 2.475-1.793c1.189-.729 2.08-1.094 2.675-1.094.73 0 1.065.375 1.008 1.125-.077 1.013-.422 2.745-1.036 5.197-.614 2.451-.96 4.163-1.036 5.136-.038.446.077.668.345.668.307 0 1.055-.506 2.244-1.52l.403.7zM46.843 89.027a10.204 10.204 0 0 1-2.36 2.036c-1.035.668-1.975 1.003-2.82 1.003-.651 0-.977-.487-.977-1.46 0-.83.259-2.197.776-4.102a15.478 15.478 0 0 1-2.56 3.647c-1.305 1.337-2.532 2.006-3.683 2.006-.806 0-1.43-.375-1.87-1.125-.365-.628-.547-1.398-.547-2.31 0-2.572.988-5.014 2.964-7.323 1.975-2.31 4.172-3.475 6.589-3.495 1.419 0 2.608.111 3.567.334-.096.506-.566 2.836-1.41 6.99-.191.81-.45 2.036-.776 3.677 0 .628.163.942.489.942.287 0 1.026-.506 2.215-1.52l.403.7zm-4.373-8.874c0-.264-.125-.477-.374-.639a1.18 1.18 0 0 0-.749-.273c-1.515 0-2.858.962-4.028 2.887-1.055 1.722-1.582 3.434-1.582 5.136 0 1.641.431 2.462 1.295 2.462 1.38 0 2.675-1.277 3.884-3.83 1.036-2.208 1.554-4.123 1.554-5.743zM63 89.027a10.205 10.205 0 0 1-2.36 2.036c-1.035.668-1.975 1.003-2.819 1.003-.307 0-.556-.172-.748-.517a2.011 2.011 0 0 1-.23-.973c0-.85.307-2.39.92-4.619.614-2.228.921-3.738.921-4.528 0-.608-.25-.912-.748-.912-.595 0-1.362.598-2.302 1.793a18.756 18.756 0 0 0-1.726 2.705 28.919 28.919 0 0 0-2.417 6.716l-2.388-.243c.383-1.742.767-3.474 1.15-5.197.442-2.046.778-3.819 1.008-5.318.077-.486-.058-.73-.403-.73-.268 0-.93.406-1.985 1.216l-.403-.668c2.32-1.986 4.009-2.979 5.064-2.979.595 0 .892.355.892 1.064 0 .588-.163 1.51-.49 2.766-.383 1.418-.603 2.37-.661 2.856a20.68 20.68 0 0 1 2.906-4.194c1.477-1.66 2.81-2.492 4-2.492 1.17 0 1.754.75 1.754 2.25 0 .709-.287 2.208-.863 4.497-.633 2.513-.978 4.052-1.036 4.62-.057.445.058.668.346.668.287 0 1.026-.506 2.215-1.52l.403.7z" fill="#C90084"/><path d="M96.104 72.745c0 .536-.199 1.01-.597 1.422-.377.412-.815.619-1.312.619a1.57 1.57 0 0 1-1.134-.464 1.585 1.585 0 0 1-.447-1.145c0-.536.189-1.01.567-1.422.397-.413.855-.619 1.372-.619.418 0 .775.165 1.074.495.318.31.477.68.477 1.114zm.09 16.67c-1.89 2.061-3.68 3.092-5.37 3.092-.338 0-.606-.175-.805-.525a1.809 1.809 0 0 1-.21-.99c.04-.99.339-2.598.896-4.825.616-2.495.974-4.154 1.074-4.98.08-.597-.07-.896-.448-.896-.239 0-.596.165-1.074.495-.318.268-.646.536-.984.804l-.418-.742c.756-.64 1.611-1.248 2.566-1.825 1.233-.742 2.157-1.114 2.774-1.114.756 0 1.104.382 1.044 1.145-.08 1.03-.438 2.794-1.074 5.288-.636 2.495-.994 4.237-1.074 5.227-.04.454.08.68.358.68.318 0 1.094-.515 2.327-1.546l.418.712zM109.591 79.054c0 .453-.14.866-.418 1.237a1.31 1.31 0 0 1-1.074.526c-.079 0-.517-.083-1.312-.248-1.214.206-2.407 1.897-3.58 5.072-.497 1.279-1.144 3.433-1.939 6.464l-2.834-.37c.497-2.31.984-4.64 1.462-6.99.378-1.897.567-3.062.567-3.495 0-.578-.14-.866-.418-.866-.378 0-1.074.412-2.088 1.237l-.448-.712c.696-.618 1.532-1.237 2.506-1.855 1.233-.763 2.158-1.145 2.774-1.145.637 0 .925.34.865 1.021-.099 1.134-.387 2.959-.865 5.474.955-1.876 1.701-3.196 2.238-3.959 1.193-1.69 2.297-2.536 3.311-2.536.835 0 1.253.382 1.253 1.145zM118.821 78.435l-.268 1.237h-3.132c-.517 2.083-1.154 5.196-1.91 9.34-.099.743.16 1.114.776 1.114.617 0 1.551-.557 2.804-1.67l.418.68c-2.068 2.248-3.888 3.371-5.459 3.371-1.253 0-1.86-.7-1.82-2.103.06-2.082.776-5.66 2.148-10.732h-2.327l.269-1.237c1.412.02 2.177-.01 2.297-.093.278-.123.964-1.494 2.058-4.113l1.969-.03-.955 4.236h3.132zM129 79.641c0 .33-.149.67-.447 1.021-.279.35-.587.526-.925.526-.338 0-.796-.289-1.372-.866-.557-.598-1.064-.897-1.522-.897a2.14 2.14 0 0 0-1.282.433c-.398.289-.597.67-.597 1.144 0 .64.477 1.32 1.432 2.041l2.685 1.98c.954.886 1.431 1.835 1.431 2.845 0 1.464-.616 2.63-1.849 3.495-1.074.763-2.347 1.144-3.818 1.144-.895 0-1.74-.165-2.536-.495-1.034-.433-1.551-1.04-1.551-1.824 0-1.093.388-1.64 1.163-1.64.418 0 .746.207.985.62.377.638.626 1.01.745 1.113.438.412 1.114.618 2.029.618 1.551 0 2.327-.577 2.327-1.732 0-.7-.478-1.422-1.432-2.165-.895-.618-1.79-1.247-2.685-1.886-.955-.805-1.432-1.67-1.432-2.598 0-1.423.597-2.567 1.79-3.433 1.054-.784 2.297-1.176 3.729-1.176 2.088 0 3.132.578 3.132 1.732z" fill="#fff"/><path fill-rule="evenodd" clip-rule="evenodd" d="M83.134 68.23c-.155.453-.477.68-.966.68-.338 0-.726-.155-1.163-.465-.577-.37-.945-.587-1.104-.649-1.472.124-2.376 5.67-2.715 10.64h2.864l-.239 1.236h-2.863c-.458 2.949-.546 3.655-.948 8.485l-.06.713c-.354 4.29-.49 5.94-1.44 8.787-.13.186-.265.448-.416.739-.385.738-.866 1.664-1.58 2.019-.994.494-1.899.742-2.714.742-.438 0-.826-.103-1.164-.309-.417-.227-.626-.557-.626-.99 0-.97.358-1.454 1.074-1.454.298 0 .686.186 1.163.557.458.392.875.588 1.253.588 1.052 0 1.22-3.156 1.503-8.469.167-3.124.373-6.994.823-11.408h-2.417l.239-1.237h2.416l.11-.723c.425-2.814 1.085-7.177 1.978-8.462 1.432-2.062 3.202-3.093 5.31-3.093.438 0 .826.103 1.163.31.354.19.557.456.612.795-.26.06-.416.093-.467.101l.06.897.314-.03zm0 0a2.411 2.411 0 0 0 .093-.968c.436-.1 1.165-.272 2.188-.517 1.411-.33 2.217-.495 2.416-.495.258 0 .388.165.388.495 0 .267-.16 1.175-.478 2.721-.674 3.279-1.05 6.464-1.241 8.443-.175 1.808-.687 4.735-1.593 9.91l-.268 1.534c-.08.536.06.804.418.804.278 0 1.073-.536 2.386-1.608l.447.711c-.755.722-1.501 1.433-2.237 2.134-.934.742-1.87 1.113-2.804 1.113-.537 0-.925-.206-1.163-.618-.22-.35-.289-.804-.21-1.361.182-1.29.388-2.875.618-4.647.653-5.021 1.501-11.548 2.545-17.157.06-.35-.249-.526-.925-.526-.13 0-.323.011-.58.033z" fill="#fff"/><path d="M82.76 67.363l.06.897.314-.03a2.411 2.411 0 0 0 .093-.968c-.26.06-.416.093-.467.101z" fill="#fff"/></symbol><symbol id="logo_mini" viewBox="0 0 55 30"><path fill-rule="evenodd" clip-rule="evenodd" d="M29.345 0C32.908 0 35.4 2.86 35.4 6.51c0 1.34-.856 2.16-1.78 3.044l-.083.08C35.648 9.004 39.781 8 43 8c4.4 0 11 1.8 11.2 7.4.2 5.6-6.4 8.8-12 8.6-5.6-.2-11.8-2.6-14.8-4.6-1.442-.961-2.86-1.826-3.907-2.465l-.047-.029c-1.12.77-3.235 2.236-3.846 2.694-.142.107-.31.245-.512.41-.705.582-1.821 1.501-3.688 2.59.914-1.219 1.852-2.113 2.67-2.894h.001c.256-.244.5-.477.729-.706.96-.96 2.533-2.4 3.2-3l.124-.07L13.2 10.4a20.702 20.702 0 0 0-.072-.084C11.108 9.462 8.07 8.476 5.6 8.6a9.294 9.294 0 0 0-1.174.13c.897.711 2.295 1.92 2.974 2.87.8 1.12 2.067 3.533 2.6 4.6 0-.133.08-.64.4-1.6.4-1.2 1.8-2.8 3.4-2 1.6.8 1.6 2 1.6 3.4s-1 3.2-2 4.4c-.736.883-2.206 2.512-3.007 3.39l.007.01c.333.667 1 2.36 1 3.8 0 1.8-1.4 2.4-2 2.4-.6 0-1.6-.4-1.6-2.2 0-1.44 1.067-3.133 1.6-3.8l.102-.136c-.285-.315-.804-.885-1.702-1.864a81.76 81.76 0 0 0-1.346-1.414C3.885 17.924 0 13.899 0 11.4c0-3 3.6-3.6 6-3.6 1.501 0 4.038.693 6.06 1.314-.716-.84-1.26-1.68-1.26-2.914 0-3.651 2.689-6.131 6.253-6.131 2.878 0 5.318 1.267 6.152 3.931.834-2.665 3.262-4 6.14-4zM10.143 23.031c3.28-3.87 4.1-5.254 4.257-6.831.2-2-.6-3-1.6-3-.767 0-1.8 1.4-2 5.2h-.6c-.6-1.333-1.4-3.8-3-6S4.544 9.544 3.602 8.929C2.2 9.114 1.703 9.549 1.2 11.4c-.503 1.85 3.4 6 6.6 9.2 1.408 1.407 2.073 2.114 2.343 2.431zM32.6 11.6c-2.72.96-6.6 3.333-8.2 4.4l.047.05c.215.236.991 1.086 3.553 2.55 3.576 2.043 8.8 4.626 14.4 4.8 5.6.174 10.8-3.4 10.8-8s-6.2-6-10.2-6c-4 0-7 1-10.4 2.2zM18.05 6.674l.379.057v2.986l-.389.048V10h1.32v-.235l-.418-.048V8.32h1.69v1.397l-.394.048V10h1.292v-.235l-.38-.048V6.73l.38-.057v-.24h-1.287v.24l.389.057v1.291h-1.69v-1.29l.413-.058v-.24H18.05v.24zm4.57 3.153c.227.15.504.226.83.226a1.537 1.537 0 0 0 1.416-.888c.144-.285.216-.615.216-.989 0-.557-.133-.992-.398-1.306-.263-.316-.643-.475-1.143-.475-.304 0-.577.077-.82.23-.244.151-.436.365-.576.644a2.162 2.162 0 0 0-.207.97c0 .361.058.68.173.955.115.272.285.483.509.633zm.158-2.774c.18-.272.424-.408.735-.408.316 0 .561.136.734.408.173.269.26.645.26 1.128 0 .521-.092.921-.274 1.2-.18.278-.423.417-.73.417-.314 0-.558-.139-.734-.417-.173-.282-.26-.663-.26-1.143 0-.521.09-.916.27-1.185zm3.027-.336l.826-.029v3.029l-.624.048V10h1.834v-.235l-.682-.048V6.688l.83.029.159 1.003h.302l-.057-1.286h-2.99L25.32 7.72h.316l.168-1.003z" fill="url(#a)"/></symbol><symbol id="Spinner" viewBox="0 0 100 100" preserveAspectRatio="xMidYMid"><rect x="47" y="24" rx="3" ry="6" width="6" height="12" fill="#fe718d"><animate attributeName="opacity" values="1;0" keyTimes="0;1" dur="1s" begin="-0.9166666666666666s" repeatCount="indefinite"/></rect><rect x="47" y="24" rx="3" ry="6" width="6" height="12" fill="#fe718d" transform="rotate(30 50 50)"><animate attributeName="opacity" values="1;0" keyTimes="0;1" dur="1s" begin="-0.8333333333333334s" repeatCount="indefinite"/></rect><rect x="47" y="24" rx="3" ry="6" width="6" height="12" fill="#fe718d" transform="rotate(60 50 50)"><animate attributeName="opacity" values="1;0" keyTimes="0;1" dur="1s" begin="-0.75s" repeatCount="indefinite"/></rect><rect x="47" y="24" rx="3" ry="6" width="6" height="12" fill="#fe718d" transform="rotate(90 50 50)"><animate attributeName="opacity" values="1;0" keyTimes="0;1" dur="1s" begin="-0.6666666666666666s" repeatCount="indefinite"/></rect><rect x="47" y="24" rx="3" ry="6" width="6" height="12" fill="#fe718d" transform="rotate(120 50 50)"><animate attributeName="opacity" values="1;0" keyTimes="0;1" dur="1s" begin="-0.5833333333333334s" repeatCount="indefinite"/></rect><rect x="47" y="24" rx="3" ry="6" width="6" height="12" fill="#fe718d" transform="rotate(150 50 50)"><animate attributeName="opacity" values="1;0" keyTimes="0;1" dur="1s" begin="-0.5s" repeatCount="indefinite"/></rect><rect x="47" y="24" rx="3" ry="6" width="6" height="12" fill="#fe718d" transform="rotate(180 50 50)"><animate attributeName="opacity" values="1;0" keyTimes="0;1" dur="1s" begin="-0.4166666666666667s" repeatCount="indefinite"/></rect><rect x="47" y="24" rx="3" ry="6" width="6" height="12" fill="#fe718d" transform="rotate(210 50 50)"><animate attributeName="opacity" values="1;0" keyTimes="0;1" dur="1s" begin="-0.3333333333333333s" repeatCount="indefinite"/></rect><rect x="47" y="24" rx="3" ry="6" width="6" height="12" fill="#fe718d" transform="rotate(240 50 50)"><animate attributeName="opacity" values="1;0" keyTimes="0;1" dur="1s" begin="-0.25s" repeatCount="indefinite"/></rect><rect x="47" y="24" rx="3" ry="6" width="6" height="12" fill="#fe718d" transform="rotate(270 50 50)"><animate attributeName="opacity" values="1;0" keyTimes="0;1" dur="1s" begin="-0.16666666666666666s" repeatCount="indefinite"/></rect><rect x="47" y="24" rx="3" ry="6" width="6" height="12" fill="#fe718d" transform="rotate(300 50 50)"><animate attributeName="opacity" values="1;0" keyTimes="0;1" dur="1s" begin="-0.08333333333333333s" repeatCount="indefinite"/></rect><rect x="47" y="24" rx="3" ry="6" width="6" height="12" fill="#fe718d" transform="rotate(330 50 50)"><animate attributeName="opacity" values="1;0" keyTimes="0;1" dur="1s" begin="0s" repeatCount="indefinite"/></rect></symbol><symbol id="videocall" viewBox="0 0 26 25"><path clip-rule="evenodd" d="M4.071 9.429c0-.607.245-1.188.68-1.617a2.34 2.34 0 0 1 1.642-.67h8.705c.563 0 1.107.202 1.53.568.424.365.698.87.772 1.42l3.61-1.58a1.177 1.177 0 0 1 1.104.085 1.129 1.129 0 0 1 .529.958v8.528a1.13 1.13 0 0 1-.529.958 1.172 1.172 0 0 1-1.103.086l-3.611-1.58a2.276 2.276 0 0 1-.771 1.42 2.343 2.343 0 0 1-1.53.566H6.392a2.34 2.34 0 0 1-1.642-.669 2.268 2.268 0 0 1-.68-1.616V9.429zm13.348 5.914l4.063 1.778V8.593l-4.063 1.778v4.972zM6.393 8.286c-.308 0-.603.12-.821.334-.218.215-.34.505-.34.809v6.857c0 .303.122.593.34.808.218.214.513.335.82.335h8.706c.308 0 .603-.12.82-.335.219-.215.34-.505.34-.808V9.429c0-.304-.121-.594-.34-.809a1.17 1.17 0 0 0-.82-.334H6.393z"/></symbol></svg>